<?xml version="1.0" standalone="no"?>
<!DOCTYPE svg PUBLIC "-//W3C//DTD SVG 20010904//EN"
 "http://www.w3.org/TR/2001/REC-SVG-20010904/DTD/svg10.dtd">
<svg version="1.0" xmlns="http://www.w3.org/2000/svg"
 width="1500.000000pt" height="1500.000000pt" viewBox="0 0 1500.000000 1500.000000"
 preserveAspectRatio="xMidYMid meet">
<metadata>
Created by potrace 1.14, written by Peter Selinger 2001-2017
</metadata>
<g transform="translate(0.000000,1500.000000) scale(0.100000,-0.100000)"
fill="#000000" stroke="none">
<path d="M7105 14994 c-1406 -85 -2673 -512 -3810 -1282 -430 -291 -762 -569
-1150 -964 -857 -869 -1472 -1906 -1830 -3083 -147 -484 -249 -1026 -297
-1580 -17 -201 -17 -969 0 -1170 116 -1339 536 -2537 1269 -3619 268 -395 517
-699 858 -1044 388 -395 720 -673 1150 -964 1081 -733 2264 -1148 3615 -1270
195 -17 973 -18 1175 0 1464 126 2776 624 3925 1488 316 238 537 433 845 746
716 727 1255 1555 1630 2508 269 684 430 1381 497 2155 17 201 17 969 0 1170
-116 1339 -536 2538 -1269 3619 -268 395 -517 699 -858 1044 -388 395 -720
673 -1150 964 -1077 730 -2280 1153 -3605 1269 -121 10 -873 20 -995 13z
m4486 -2724 c335 -84 583 -322 675 -650 9 -31 18 -117 21 -195 4 -116 2 -157
-15 -236 -22 -109 -86 -253 -151 -339 -22 -30 -358 -373 -747 -761 l-706 -707
711 -712 c392 -392 732 -740 756 -775 211 -296 220 -719 22 -1025 -63 -96
-193 -223 -282 -276 -158 -93 -305 -134 -483 -134 -178 1 -347 50 -497 145
-42 26 -382 360 -1155 1134 -1181 1182 -1138 1135 -1203 1306 -46 121 -60 200
-60 335 0 216 61 396 188 559 24 31 522 533 1107 1117 1110 1108 1094 1093
1250 1163 168 76 388 95 569 51z m-7719 -4 c156 -38 291 -108 405 -208 40 -34
1813 -1806 3940 -3936 3058 -3063 3879 -3890 3920 -3950 58 -87 106 -201 129
-306 21 -96 21 -299 0 -391 -65 -276 -236 -495 -480 -614 -131 -65 -233 -91
-371 -98 -216 -10 -446 65 -605 198 -54 45 -7818 7811 -7852 7854 -191 241
-242 598 -127 895 81 212 248 392 452 489 90 43 134 57 247 77 88 16 258 11
342 -10z m-7 -3692 c140 -35 282 -104 375 -182 70 -59 4078 -4067 4147 -4147
92 -108 167 -261 194 -400 17 -86 17 -290 -1 -370 -17 -81 -71 -220 -111 -286
-37 -62 -139 -183 -178 -213 -14 -11 -28 -23 -31 -26 -29 -36 -205 -128 -300
-158 -280 -88 -590 -34 -820 144 -81 63 -4192 4181 -4229 4237 -135 201 -185
480 -130 721 86 370 388 645 764 695 88 12 241 5 320 -15z m-15 -3668 c157
-44 271 -105 387 -209 127 -113 507 -504 546 -561 146 -215 196 -494 133 -741
-82 -316 -289 -538 -601 -644 -272 -92 -573 -46 -810 124 -94 68 -605 588
-649 662 -97 163 -136 302 -136 491 0 132 19 236 63 342 88 214 228 365 434
468 200 101 428 125 633 68z"/>
</g>
</svg>
